<svg width="632" height="633" viewBox="0 0 632 633" fill="none" xmlns="http://www.w3.org/2000/svg">
<circle cx="316.5" cy="272.5" r="65.5" fill="#125CA5"/>
<circle cx="103.5" cy="386.5" r="20.5" fill="#125CA5"/>
<circle cx="52.5" cy="342.5" r="20.5" fill="#125CA5"/>
<circle cx="110.5" cy="301.5" r="20.5" fill="#125CA5"/>
<circle cx="170.5" cy="194.5" r="20.5" fill="#125CA5"/>
<circle cx="464.5" cy="194.5" r="20.5" fill="#125CA5"/>
<circle cx="388.5" cy="53.5" r="20.5" fill="#125CA5"/>
<circle cx="316.5" cy="20.5" r="20.5" fill="#125CA5"/>
<circle cx="245.5" cy="53.5" r="20.5" fill="#125CA5"/>
<circle cx="316" cy="129" r="30" fill="#125CA5"/>
<circle cx="522.5" cy="301.5" r="20.5" fill="#125CA5"/>
<circle cx="529.5" cy="386.5" r="20.5" fill="#125CA5"/>
<circle cx="529.5" cy="386.5" r="20.5" fill="#125CA5"/>
<circle cx="580.5" cy="340.5" r="20.5" fill="#125CA5"/>
<circle cx="611.5" cy="390.5" r="20.5" fill="#125CA5"/>
<circle cx="20.5" cy="390.5" r="20.5" fill="#125CA5"/>
<path d="M356 361C406.81 361 448 402.19 448 453V541C448 544.317 447.823 547.592 447.48 550.818L392.998 584.618V457C392.998 445.954 384.044 437 372.998 437H368.998V454.262L308.805 503.353L368.998 555.167V599.507L315.011 633H312.121L254 596.059V437H252C240.954 437 232 445.954 232 457V582.076L180.365 549.259C180.123 546.538 180 543.784 180 541V453C180 402.19 221.19 361 272 361H356Z" fill="#125CA5"/>
<path d="M228.088 147.478C257.833 134.457 290.17 128.172 322.713 129.087C355.256 130.002 387.176 138.094 416.116 152.765C445.057 167.436 470.282 188.313 489.929 213.855C509.576 239.397 523.145 268.952 529.635 300.341C535.485 328.639 535.447 357.776 529.563 386H518.974C525.01 358.484 525.194 330.009 519.481 302.374C513.3 272.48 500.377 244.332 481.666 220.007C462.955 195.682 438.932 175.801 411.37 161.829C383.808 147.856 353.41 140.15 322.417 139.279C291.425 138.407 260.628 144.393 232.3 156.793C203.972 169.194 178.835 187.693 158.742 210.927C138.65 234.161 124.115 261.537 116.209 291.035C108.304 320.533 107.229 351.401 113.065 381.362L102.888 383.281C96.7599 351.821 97.8876 319.409 106.189 288.435C114.49 257.461 129.752 228.716 150.85 204.32C171.948 179.924 198.343 160.499 228.088 147.478Z" fill="#125CA5"/>
<rect x="377" y="400.342" width="68.1674" height="10.8319" transform="rotate(-48.8664 377 400.342)" fill="#125CA5"/>
<rect x="209.52" y="349" width="68.1674" height="10.8319" transform="rotate(43.9573 209.52 349)" fill="#125CA5"/>
<rect x="321.969" y="27.0215" width="68.1674" height="10.8319" transform="rotate(90.1151 321.969 27.0215)" fill="#125CA5"/>
<rect x="392.969" y="61.0215" width="43.0931" height="10.8319" transform="rotate(90.1151 392.969 61.0215)" fill="#125CA5"/>
<rect x="250.918" y="63.0215" width="43.0931" height="10.8319" transform="rotate(90.1151 250.918 63.0215)" fill="#125CA5"/>
<rect x="417" y="407.342" width="68.1674" height="10.8319" transform="rotate(-48.8664 417 407.342)" fill="#125CA5"/>
<rect x="169.691" y="357" width="68.1674" height="10.8319" transform="rotate(45.2535 169.691 357)" fill="#125CA5"/>
<rect x="428" y="331.434" width="51.9725" height="10.8319" transform="rotate(-42.9836 428 331.434)" fill="#125CA5"/>
<rect x="163.383" y="296" width="51.9725" height="10.8319" transform="rotate(42.9641 163.383 296)" fill="#125CA5"/>
<rect x="437.977" y="326" width="47.5137" height="10.8319" transform="rotate(47.4316 437.977 326)" fill="#125CA5"/>
<rect x="160" y="362.312" width="51.1723" height="10.8319" transform="rotate(-46.233 160 362.312)" fill="#125CA5"/>
<rect x="466" y="296" width="46" height="11" fill="#125CA5"/>
<rect x="116" y="296" width="46" height="11" fill="#125CA5"/>
<path d="M381.997 94.992C406.114 100.64 429.352 109.441 451.029 121.188C484.014 139.062 512.644 163.356 535.044 192.476C557.444 221.597 573.109 254.889 581.013 290.172C588.917 325.454 588.986 312.467 581.014 347.75L574.997 347.556C577.497 319.002 575.971 326.324 568.444 292.723C560.916 259.121 545.997 227.415 524.664 199.681C503.332 171.948 476.065 148.812 444.653 131.79C424.935 121.105 403.861 112.98 381.997 107.585V94.992ZM250.999 108.044C245.861 109.349 240.759 110.805 235.702 112.415C201.387 123.342 169.882 141.029 143.251 164.314C116.621 187.6 95.4642 215.961 81.1682 247.539C66.8722 279.117 59.7581 313.201 60.2932 347.557L47.4435 347.749C46.8818 311.674 54.3514 275.886 69.3625 242.728C84.3737 209.571 106.588 179.79 134.551 155.34C162.514 130.889 195.596 112.318 231.628 100.844C238.022 98.8074 244.484 97.0029 250.999 95.4315V108.044ZM310.999 87.619C314.663 87.536 318.329 87.5219 321.997 87.5809V99.5018L323.125 99.8094C318.508 99.712 313.892 99.7323 309.282 99.8709L310.999 99.4618V87.619Z" fill="#125CA5"/>
</svg>
